<mxfile host="app.diagrams.net" modified="2023-04-28T23:08:40.499Z" agent="Mozilla/5.0 (Macintosh; Intel Mac OS X 10_15_7) AppleWebKit/537.36 (KHTML, like Gecko) Chrome/110.0.0.0 Safari/537.36" version="21.1.4" etag="Lo3hs2GcHPC7e6LGoFL_" type="github">
  <diagram name="Page-1" id="bJQlpM9fEHyebby8MinF">
    <mxGraphModel>
      <root>
        <mxCell id="0" />
        <mxCell id="1" parent="0" />
      </root>
    </mxGraphModel>
  </diagram>
</mxfile>
